<svg xmlns="http://www.w3.org/2000/svg" width="23.26" height="23.597" viewBox="0 0 23.26 23.597">
  <g id="Path_2" data-name="Path 2" transform="translate(-292.612 -289.342)" fill="none" stroke-linecap="round" stroke-linejoin="round">
    <path d="M294.12,299.23l8.637-7.789a1.946,1.946,0,0,1,2.779,0c1.454,1.349,8.807,7.789,8.807,7.789v10.714s.385,1.433-1.625,1.475-4.617,0-4.617,0-1.026-.084-.941-1.812,0-5.353,0-5.353.086-1.1-1.325-1.1h-4.019a1.063,1.063,0,0,0-1.154,1.1c-.043,1.18,0,5.69,0,5.69s.043,1.433-1.24,1.475-4.789,0-4.789,0-.6.042-.513-1.475S294.12,299.23,294.12,299.23Z" stroke="none"/>
    <path d="M 304.1691589355469 290.8416442871094 C 303.3457946777344 290.8416442871094 302.7566833496094 291.4410705566406 302.7566833496094 291.4410705566406 L 294.1201477050781 299.2303161621094 C 294.1201477050781 299.2303161621094 294.2056884765625 308.4270629882813 294.1201477050781 309.9444274902344 C 294.0390930175781 311.3819274902344 294.5721130371094 311.4197387695313 294.62841796875 311.4197387695313 C 294.6315612792969 311.4197387695313 294.6332092285156 311.4196166992188 294.6332092285156 311.4196166992188 C 294.6332092285156 311.4196166992188 296.1913452148438 311.4383544921875 297.6102294921875 311.4383544921875 C 298.3196105957031 311.4383544921875 298.9942626953125 311.4336547851563 299.4217834472656 311.4196166992188 C 300.7044067382813 311.3774719238281 300.6616516113281 309.9444274902344 300.6616516113281 309.9444274902344 C 300.6616516113281 309.9444274902344 300.6189270019531 305.4345092773438 300.6616516113281 304.2543029785156 C 300.6990661621094 303.2217102050781 301.5546875 303.1571655273438 301.7680969238281 303.1571655273438 C 301.7986145019531 303.1571655273438 301.8160095214844 303.1584777832031 301.8160095214844 303.1584777832031 C 301.8160095214844 303.1584777832031 304.4241027832031 303.1584777832031 305.8350524902344 303.1584777832031 C 307.2459411621094 303.1584777832031 307.160400390625 304.2543029785156 307.160400390625 304.2543029785156 C 307.160400390625 304.2543029785156 307.2459106445313 307.8791198730469 307.160400390625 309.6072082519531 C 307.074951171875 311.3353576660156 308.1010437011719 311.4196166992188 308.1010437011719 311.4196166992188 C 308.1010437011719 311.4196166992188 309.2601318359375 311.4383544921875 310.6283264160156 311.4383544921875 C 311.3123474121094 311.4383544921875 312.0487670898438 311.4336547851563 312.7185363769531 311.4196166992188 C 314.7280578613281 311.3774719238281 314.34326171875 309.9444274902344 314.34326171875 309.9444274902344 L 314.34326171875 299.2303161621094 C 314.34326171875 299.2303161621094 306.9894104003906 292.7898254394531 305.5357666015625 291.4410705566406 C 305.0511169433594 290.991455078125 304.5809020996094 290.8416442871094 304.1691589355469 290.8416442871094 M 304.1691589355469 289.3416442871094 C 304.7663879394531 289.3416442871094 305.665283203125 289.5151062011719 306.5559692382813 290.3414306640625 C 307.9773864746094 291.6602783203125 315.2581481933594 298.0376281738281 315.3315124511719 298.1018981933594 C 315.65673828125 298.38671875 315.84326171875 298.7980041503906 315.84326171875 299.2303161621094 L 315.84326171875 309.8115844726563 C 315.9040832519531 310.2300415039063 315.9203796386719 311.0335083007813 315.3644409179688 311.7743835449219 C 314.9853210449219 312.2796325683594 314.2239990234375 312.8883666992188 312.75 312.9192810058594 C 312.1470947265625 312.9319458007813 311.4332580566406 312.9383544921875 310.6283264160156 312.9383544921875 C 309.2637939453125 312.9383544921875 308.0885314941406 312.9196166992188 308.0768127441406 312.91943359375 C 308.0439147949219 312.9188842773438 308.0110778808594 312.9172668457031 307.9783020019531 312.9145812988281 C 307.1228637695313 312.8443298339844 305.5379028320313 312.0472106933594 305.6622314453125 309.5331420898438 C 305.7283935546875 308.1961059570313 305.6871643066406 305.6156616210938 305.6685180664063 304.6584777832031 L 302.1520385742188 304.6584777832031 C 302.1270751953125 306.1120300292969 302.1592407226563 309.6761779785156 302.1614685058594 309.9176635742188 C 302.1954956054688 311.33203125 301.2673645019531 312.8597717285156 299.4710693359375 312.9188232421875 C 299.0765380859375 312.9317932128906 298.4504699707031 312.9383544921875 297.6102294921875 312.9383544921875 C 296.2820739746094 312.9383544921875 294.8155517578125 312.9218444824219 294.6338500976563 312.9197387695313 C 294.6320190429688 312.9197387695313 294.6302185058594 312.9197387695313 294.62841796875 312.9197387695313 C 294.1362915039063 312.9197387695313 293.6487426757813 312.7025756835938 293.2908325195313 312.3239135742188 C 292.7782287597656 311.7815856933594 292.5596313476563 310.9756469726563 292.6225280761719 309.8599853515625 C 292.6904296875 308.6555480957031 292.6438903808594 301.78857421875 292.6202087402344 299.2442626953125 C 292.6162109375 298.8147277832031 292.7965698242188 298.4041137695313 293.1155395507813 298.1164245605469 L 301.7287902832031 290.3481750488281 C 301.9787292480469 290.1071166992188 302.8747863769531 289.3416442871094 304.1691589355469 289.3416442871094 Z" stroke="none" fill="#afbccc"/>
  </g>
</svg>
