<svg xmlns="http://www.w3.org/2000/svg" width="24" height="24" viewBox="0 0 24 24">
  <g id="Group_2" data-name="Group 2" transform="translate(-919 -528)">
    <g id="Ellipse_1" data-name="Ellipse 1" transform="translate(919 528)" fill="#fff" stroke="#afbccc" stroke-width="1.5">
      <circle cx="12" cy="12" r="12" stroke="none"/>
      <circle cx="12" cy="12" r="11.25" fill="none"/>
    </g>
    <path id="Path_1" data-name="Path 1" d="M564.562,323.547s-6.276.055-8.132,5.294" transform="translate(366.934 207.76)" fill="none" stroke="#afbccc" stroke-width="1.5"/>
    <path id="Path_2" data-name="Path 2" d="M552.382,365.5s-.491,1.91,0,2.674" transform="translate(370.546 172.246)" fill="none" stroke="#afbccc" stroke-width="1.5"/>
    <path id="Path_3" data-name="Path 3" d="M659.894,374.212a6.086,6.086,0,0,1,0,2.7" transform="translate(279.352 164.872)" fill="none" stroke="#afbccc" stroke-width="1.5"/>
    <path id="Path_4" data-name="Path 4" d="M609.387,398.923a8.289,8.289,0,0,1-8.514,5.185" transform="translate(329.313 143.955)" fill="none" stroke="#afbccc" stroke-width="1.5"/>
    <path id="Path_5" data-name="Path 5" d="M595.694,353.716s-.764-2.729-2.947-2.019-1.583,3.384.437,3.82,3.766,3.056.982,4.148-2.893-2.238-2.893-2.238" transform="translate(337.439 184.031)" fill="none" stroke="#afbccc" stroke-width="1.5"/>
    <path id="Path_6" data-name="Path 6" d="M605.673,340.791v1.555" transform="translate(325.25 193.163)" fill="none" stroke="#afbccc" stroke-width="1.5"/>
    <path id="Path_7" data-name="Path 7" d="M605.5,406.338v-1.726" transform="translate(325.396 139.14)" fill="none" stroke="#afbccc" stroke-width="1.5"/>
  </g>
</svg>
