<?xml version="1.0" encoding="UTF-8"?>
<!DOCTYPE svg PUBLIC "-//W3C//DTD SVG 1.1//EN" "http://www.w3.org/Graphics/SVG/1.1/DTD/svg11.dtd">
<!-- Creator: CorelDRAW X8 -->
<svg xmlns="http://www.w3.org/2000/svg" xml:space="preserve" width="500px" height="500px" version="1.1" style="shape-rendering:geometricPrecision; text-rendering:geometricPrecision; image-rendering:optimizeQuality; fill-rule:evenodd; clip-rule:evenodd"
viewBox="0 0 500 500"
 xmlns:xlink="http://www.w3.org/1999/xlink">
 <defs>
  <style type="text/css">
   <![CDATA[
    .str0 {stroke:#373435;stroke-width:2.08347}
    .fil27 {fill:none}
    .fil32 {fill:#0598A0}
    .fil24 {fill:#1FB8C6}
    .fil30 {fill:#47200F}
    .fil33 {fill:#5B0802}
    .fil12 {fill:#6C1615}
    .fil31 {fill:#732A21}
    .fil8 {fill:#7A454F}
    .fil1 {fill:#7D1B18}
    .fil16 {fill:#7F8001}
    .fil14 {fill:#831F1D}
    .fil15 {fill:#942E18}
    .fil22 {fill:#984213}
    .fil6 {fill:#986A6A}
    .fil2 {fill:#9A3023}
    .fil37 {fill:#9C2D24}
    .fil9 {fill:#9D2C1E}
    .fil28 {fill:#9F4D13}
    .fil23 {fill:#A04B08}
    .fil34 {fill:#AE3C00}
    .fil7 {fill:#B4ABB0}
    .fil17 {fill:#B5B201}
    .fil35 {fill:#B61B21}
    .fil10 {fill:#BA3E24}
    .fil18 {fill:#BADE00}
    .fil5 {fill:#C09FAA}
    .fil4 {fill:#C44427}
    .fil13 {fill:#C4745D}
    .fil21 {fill:#C55D28}
    .fil19 {fill:#C9B400}
    .fil11 {fill:#CA4A25}
    .fil3 {fill:#CA4A27}
    .fil20 {fill:#CD5F00}
    .fil0 {fill:#D35429}
    .fil25 {fill:#D73B2F}
    .fil36 {fill:#F0A901}
    .fil29 {fill:#FCE01A}
    .fil26 {fill:#FEC200}
   ]]>
  </style>
 </defs>
 <g id="Layer_x0020_1">
  <metadata id="CorelCorpID_0Corel-Layer"/>
  <g id="_2203390239008">
   <polygon class="fil0" points="168,329 240,315 335,316 365,325 335,409 296,411 227,437 203,441 196,439 191,436 163,409 "/>
   <polygon class="fil1 str0" points="125,381 142,399 178,404 185,403 185,396 162,385 "/>
   <polygon class="fil2" points="191,328 194,341 191,436 146,416 140,393 169,395 180,399 168,392 "/>
   <path class="fil3" d="M125 381l-9 -53 2 -9 55 3 18 6 -3 58c0,0 -16,9 -24,6 -8,-3 -39,-11 -39,-11z"/>
   <polygon class="fil0" points="120,351 190,349 189,367 122,364 "/>
   <path class="fil4" d="M191 436l5 3 65 -23c0,0 14,-19 14,-27 -1,-9 -8,-48 -17,-70 0,0 -55,6 -61,9 0,0 -3,4 -3,13 0,8 -3,95 -3,95z"/>
   <polygon class="fil5" points="196,352 189,354 177,383 186,387 198,387 208,384 234,367 215,360 "/>
   <polygon class="fil6" points="192,407 215,408 205,390 198,387 186,387 177,383 "/>
   <polygon class="fil5" points="220,413 204,388 215,408 192,407 "/>
   <polygon class="fil7" points="208,384 205,390 198,387 "/>
   <path class="fil8" d="M234 367l2 7c0,0 -8,35 -11,39l-5 0 -15 -23 3 -6 26 -17z"/>
   <path class="fil9" d="M247 400l-12 -28c0,0 -6,34 -9,40l-1 1 -5 0 -14 -3 15 5 14 0 12 -15z"/>
   <polygon class="fil0" points="267,346 214,359 223,363 268,350 "/>
   <polygon class="fil10" points="234,367 269,355 271,367 240,383 236,375 "/>
   <path class="fil11" d="M265 332c0,0 0,-13 8,-12 7,0 45,2 56,14l-19 56 -11 5c0,0 -18,-3 -19,-5 -2,-3 -15,-58 -15,-58z"/>
   <path class="fil5" d="M288 350c0,0 6,-9 8,-8 2,0 10,6 10,9l-18 -1z"/>
   <polygon class="fil6" points="297,359 290,354 288,350 297,350 "/>
   <polygon class="fil8" points="306,351 303,359 300,360 297,359 297,350 "/>
   <polygon class="fil12" points="357,408 341,408 308,398 271,418 261,419 224,449 230,454 280,473 306,456 314,436 304,419 305,413 352,410 "/>
   <polygon class="fil9" points="303,363 307,363 309,355 306,351 303,359 300,360 296,358 "/>
   <polygon class="fil4" points="276,375 314,378 311,387 277,381 "/>
   <path class="fil13" d="M276 396c0,0 -11,12 -10,19 0,6 32,-13 32,-15 0,-2 0,-5 -4,-4 -3,0 -18,0 -18,0z"/>
   <path class="fil14" d="M196 439l28 10 42 -14 -36 19 32 23 14 0c0,0 23,-18 22,-28 -1,-11 -9,-22 -9,-22l-8 1 -7 -7 -13 -2 -65 20z"/>
   <path class="fil2" d="M408 317l-4 -5 -26 0c0,0 4,10 -34,8l-15 14 -19 56 -2 8 33 10 16 0 51 -91z"/>
   <path class="fil3" d="M353 370l-8 20 12 18 -16 0 -25 -9 -3 -5 12 -47c0,0 24,-25 68,-2l-10 17 -8 14 -22 -6z"/>
   <path class="fil5" d="M353 370l25 7 11 5c0,0 -3,-16 -6,-20 -4,-3 -30,8 -30,8z"/>
   <path class="fil8" d="M362 400l27 -18 -11 -5 -25 -7c0,0 -4,17 -2,20 2,3 11,10 11,10z"/>
   <path class="fil15" d="M116 324l0 4c0,0 3,-7 49,-4 0,0 21,2 26,4l3 13c0,0 0,-11 3,-13 3,-1 45,-10 61,-9 0,0 8,19 11,35l1 -1c0,0 -4,-18 -5,-22 -1,-3 3,-12 8,-11 4,0 52,2 56,14l-4 13c0,0 16,-15 38,-11 21,3 30,9 30,9l15 -28 -4 -5 -26 0 -37 6 -66 -9 -114 2 -44 4 -1 9z"/>
   <path class="fil16" d="M115 309c0,0 -18,-14 -25,-7 0,0 17,10 20,10 0,0 -18,20 -16,22 1,2 29,-16 44,-16 0,0 27,12 55,4 28,-9 47,-7 47,-7 0,0 -74,-3 -89,-3 -14,-1 -36,-3 -36,-3z"/>
   <path class="fil16" d="M337 312l71 -9c0,0 15,-7 26,6 0,0 0,2 -20,-3 0,0 18,9 14,31l-24 -25 -26 0c0,0 5,10 -36,8l-5 -8z"/>
   <polygon class="fil17" points="115,309 408,303 344,315 330,317 253,315 240,315 155,314 "/>
   <path class="fil18" d="M151 312c0,0 -9,12 -4,13 5,2 12,-6 26,-8 14,-2 22,-3 22,-3 0,0 -31,-5 -44,-2z"/>
   <path class="fil18" d="M253 315c0,0 45,-14 64,-8 20,5 27,8 29,16 1,9 -6,11 -19,6 -12,-5 -44,-16 -74,-14z"/>
   <path class="fil19" d="M371 305c0,0 2,-56 29,-59 0,0 4,-2 -4,18 -8,20 -15,40 -15,40l-7 1 -3 0z"/>
   <path class="fil19" d="M385 305c0,0 7,-35 21,-35 14,0 20,2 18,4 -3,2 -29,28 -34,29l-5 2z"/>
   <path class="fil16" d="M374 304c0,0 6,-50 27,-58 0,0 -20,9 -24,58l-3 0z"/>
   <path class="fil16" d="M386 301c0,0 11,-33 38,-28 0,0 -23,-2 -38,28z"/>
   <path class="fil16" d="M169 426c0,0 31,78 77,39l-2 -1c0,0 -19,15 -37,5 -19,-11 -34,-41 -34,-41l-4 -2z"/>
   <path class="fil16" d="M317 412c0,0 13,45 29,43 16,-2 29,-37 31,-65l-4 3c0,0 -6,52 -26,59 0,0 -14,1 -26,-40l-4 0z"/>
  </g>
  <g id="_2203390240896">
   <path class="fil18" d="M169 49c0,0 -18,-23 -47,-15 0,0 31,6 36,18l11 22 3 -10 -3 -15z"/>
   <path class="fil18" d="M148 113c0,0 -37,-55 -73,-62 0,0 58,47 76,85l1 7c0,0 -49,-33 -84,-17 0,0 49,2 86,33l4 27c0,0 -78,-7 -105,51 0,0 31,-43 107,-38l24 -6 -36 -80z"/>
   <path class="fil18" d="M310 47c0,0 14,-31 33,-30 0,0 -21,15 -25,43l-8 -13z"/>
   <path class="fil20" d="M201 337c0,0 0,22 9,22 0,0 5,3 8,1 0,0 4,3 10,-3 0,0 7,4 12,-3 0,0 2,-9 2,-16 0,-8 -1,-11 -1,-11l-37 1 -3 9z"/>
   <path class="fil20" d="M243 330c0,0 2,26 5,27 4,0 5,-9 5,-9 0,0 0,10 5,7 5,-4 23,0 23,0l3 -18 0 -6 -41 -1z"/>
   <path class="fil20" d="M286 331c0,0 -2,16 2,19 3,3 9,8 10,2l-1 -6c0,0 3,12 6,10 2,-1 7,-1 7,-7 0,0 6,6 7,1 1,-6 7,-11 -2,-21l-29 2z"/>
   <path class="fil21" d="M170 72c-1,-1 -5,-22 -10,-22 -5,1 -8,1 -8,1l1 6 -3 -6c0,0 -9,1 -8,7 0,6 18,163 36,247 2,9 4,17 6,25l147 1c0,0 42,-191 42,-273 0,0 -9,-8 -10,-5 -2,2 -5,27 -5,27 0,0 2,-25 -1,-28 -2,-4 -16,-2 -16,-2l-4 13c0,0 2,-15 -3,-14 -5,1 -12,5 -12,5l-3 28c0,0 2,-36 -9,-35 -10,0 -20,-3 -21,2 -1,5 0,7 0,7 0,0 -3,-11 -6,-11 -4,0 -11,0 -11,0l-33 5c0,0 -12,-9 -13,-1 0,0 -15,-9 -16,3 0,0 -9,-7 -11,3 -3,11 -4,33 -4,33 0,0 -1,-40 -10,-38 0,0 -17,-4 -18,0 0,5 3,22 3,22z"/>
   <path class="fil22" d="M286 234c0,0 2,21 26,23 23,2 30,-15 29,-28l-13 16 -17 4 -25 -15z"/>
   <path class="fil23" d="M253 267c0,0 1,6 9,5 7,0 10,3 9,-7l-16 -3 0 -19 -6 13 -2 12c0,0 0,7 6,-1z"/>
   <polygon class="fil24" points="145,81 258,182 372,82 370,100 260,196 146,98 "/>
   <polygon class="fil25" points="368,125 370,100 260,196 146,98 149,123 260,218 "/>
   <path class="fil26" d="M253 75c0,0 0,0 0,-1 0,0 0,0 0,0 0,-7 -2,-36 -5,-38 -2,-3 -9,-4 -9,1 0,5 5,219 9,232 0,0 3,6 5,-24 0,0 -2,27 7,25 9,-2 12,-2 12,-7 0,-4 0,-4 0,-5 0,-1 8,-220 8,-220 0,0 0,-7 -11,-4l-2 13 -2 -12c0,0 -9,-3 -11,1 -1,4 2,28 -1,39z"/>
   <path class="fil27" d="M202 210c0,0 -14,5 -12,19 3,13 18,11 23,8 4,-2 10,-12 3,-21 -6,-9 -14,-6 -14,-6z"/>
   <path class="fil28" d="M214 256l4 -7 1 4c0,0 12,-4 14,-24l-20 14 -20 1 -9 -19 -5 -7c0,0 -5,16 2,26 8,11 14,13 33,12z"/>
   <path class="fil29" d="M192 212l-4 -8c0,0 -7,0 -9,11 -1,10 -3,25 11,34 0,0 12,5 25,1l3 -5 1 4c0,0 16,-8 14,-29 -2,-22 -30,-27 -41,-19l0 11z"/>
   <path class="fil30" d="M190 229c0,0 5,-13 12,-14 8,-1 15,5 17,12 0,0 2,-17 -15,-17 0,0 -17,3 -14,19z"/>
   <path class="fil31" d="M190 228c0,0 0,11 15,11 14,0 14,-14 14,-14 0,0 -5,-12 -16,-11 0,0 -8,1 -13,14z"/>
   <path class="fil29" d="M326 206c0,0 2,-8 -7,-8 -9,-1 -28,0 -33,24 -5,25 24,32 30,31 7,-1 23,-5 25,-21 2,-17 -2,-21 -6,-24 0,0 -4,-10 -7,-6l-2 4z"/>
   <path class="fil30" d="M300 227c0,0 -3,-11 10,-16 13,-5 18,8 17,11l-27 5z"/>
   <path class="fil31" d="M300 227c0,0 4,-11 11,-12 7,-1 14,2 16,7 2,5 -2,17 -11,19 -10,1 -18,-7 -16,-14z"/>
   <polygon class="fil32" points="200,316 228,300 260,317 289,300 320,316 336,307 339,292 319,304 289,287 259,303 228,287 200,304 175,289 178,304 "/>
   <path class="fil33" d="M187 328c0,0 -1,7 1,8 2,1 25,1 26,-1 1,-1 1,-5 1,-5l-14 -2 -4 -11 -3 8 -7 3z"/>
   <polygon class="fil34" points="208,51 214,107 210,52 "/>
   <polygon class="fil34" points="288,53 288,73 290,48 "/>
   <path class="fil34" d="M190 53l22 243 4 -2c0,0 -21,-196 -17,-216l0 -23c0,0 -4,26 -4,33 0,0 0,-24 -5,-35z"/>
   <path class="fil34" d="M317 53c0,0 3,16 2,29l3 -28c0,0 -16,238 -14,244l-6 -4c0,0 14,-191 15,-241z"/>
   <polygon class="fil34" points="258,272 257,302 259,303 262,301 262,272 "/>
   <path class="fil35" d="M214 308l1 22c0,0 -15,2 -16,-2 0,-4 -2,-9 -2,-9l-1 8 -9 1 -9 -23 22 11 14 -8z"/>
   <polygon class="fil35" points="217,306 220,330 231,330 228,314 233,330 246,330 248,326 248,330 257,331 259,317 228,300 "/>
   <path class="fil35" d="M302 307l0 24 -13 0 -3 -12c0,0 1,10 0,12l-25 0 1 -16 27 -15 13 7z"/>
   <path class="fil35" d="M307 309c0,0 0,18 0,20l27 1 2 -23 -16 9 -13 -7z"/>
   <path class="fil33" d="M220 330c0,0 -1,5 -1,7 0,1 11,0 11,0 0,0 1,-5 1,-7l-11 0z"/>
   <path class="fil33" d="M234 330c0,0 -1,7 0,7 1,1 9,1 9,1l3 -8c0,0 -1,7 1,8 3,0 8,0 10,-7l-23 -1z"/>
   <path class="fil33" d="M261 331c0,0 1,6 6,7 5,0 16,1 17,-2 1,-3 2,-5 2,-5l-25 0z"/>
   <path class="fil33" d="M289 331c0,0 -3,5 0,6 2,1 8,0 10,-1 1,-1 3,-5 3,-5l-13 0z"/>
   <path class="fil33" d="M307 329c0,0 -3,6 0,7 4,1 20,1 20,1 0,0 8,0 7,-7l-27 -1z"/>
   <path class="fil18" d="M369 115c0,0 35,-59 75,-68 0,0 -47,22 -75,103 0,0 50,-34 95,-17 0,0 -65,-6 -95,51 0,0 49,-6 88,41 0,0 -52,-29 -74,-17l-28 1 14 -94z"/>
   <path class="fil36" d="M155 166c0,0 -20,-5 -15,7l1 5c0,0 -5,-16 -9,-12 -5,4 -8,7 -6,12 2,6 13,54 18,58 0,0 14,6 21,-4l-10 -66z"/>
   <path class="fil37" d="M157 180c0,0 -11,-2 -10,7 1,9 4,30 7,33 3,3 10,2 10,2l-7 -42z"/>
   <path class="fil36" d="M362 166c0,0 4,0 5,3 0,0 1,-6 9,-5 8,1 10,2 9,8 0,0 1,-6 4,-4 2,2 4,10 0,20 -4,10 -11,47 -17,49 -6,1 -19,2 -21,-6l11 -65z"/>
   <path class="fil37" d="M359 181c0,0 12,0 13,4 1,3 -6,36 -10,37 -4,1 -9,-1 -9,-1l6 -40z"/>
  </g>
 </g>
</svg>
