<svg xmlns="http://www.w3.org/2000/svg" width="13.608" height="13.855" viewBox="0 0 13.608 13.855">
  <g id="Group_5" data-name="Group 5" transform="translate(-1173.294 -422.823)">
    <path id="Path_14" data-name="Path 14" d="M1179.851,425.772l2.146-1.978a2.845,2.845,0,0,1,2.783.5,2.939,2.939,0,0,1,.7,4.124,15.779,15.779,0,0,1-2.95,2.883s-2.615,1.14-4.057-1.106" fill="none" stroke="#fff" stroke-width="1.5"/>
    <path id="Path_15" data-name="Path 15" d="M1179.851,425.772l2.146-1.978a2.845,2.845,0,0,1,2.783.5,2.939,2.939,0,0,1,.7,4.124,15.779,15.779,0,0,1-2.95,2.883s-2.615,1.14-4.057-1.106" transform="matrix(-0.998, -0.07, 0.07, -0.998, 2327.81, 940.634)" fill="none" stroke="#fff" stroke-width="1.5"/>
  </g>
</svg>
