<svg xmlns="http://www.w3.org/2000/svg" width="20.008" height="24.559" viewBox="0 0 20.008 24.559">
  <g id="Group_1" data-name="Group 1" transform="translate(-881.925 -525.999)">
    <path id="Path_8" data-name="Path 8" d="M894.169,526.749h-9.281a2.592,2.592,0,0,0-2.21,2.578c.074,2.21,0,17.752,0,17.752a3.158,3.158,0,0,0,2.21,2.725c2.063-.074,14.069,0,14.069,0a2.537,2.537,0,0,0,2.136-2.725c-.074-2.431,0-13.627,0-13.627Z" transform="translate(0)" fill="none" stroke="#afbccc" stroke-width="1.5"/>
    <path id="Path_9" data-name="Path 9" d="M886.361,537.135h11.27" transform="translate(0 0)" fill="none" stroke="#afbccc" stroke-width="1.5"/>
    <path id="Path_10" data-name="Path 10" d="M886.361,537.135h11.27" transform="translate(0 4)" fill="none" stroke="#afbccc" stroke-width="1.5"/>
    <path id="Path_11" data-name="Path 11" d="M886.361,537.135h11.27" transform="translate(0 8)" fill="none" stroke="#afbccc" stroke-width="1.5"/>
    <path id="Path_12" data-name="Path 12" d="M894.216,527.136l-.6.413V531.6a2.4,2.4,0,0,0,2.529,2.244c2.4-.02,4.623-.119,4.623-.119l.2-.317Z" transform="translate(0 0)" fill="none" stroke="#afbccc" stroke-width="1.5"/>
  </g>
</svg>
