<svg xmlns="http://www.w3.org/2000/svg" width="25.719" height="26.304" viewBox="0 0 25.719 26.304">
  <path id="ic_settings_24px" d="M23.552,15.618a9.665,9.665,0,0,0,.087-1.215,9.665,9.665,0,0,0-.087-1.215l2.617-2.046a.626.626,0,0,0,.149-.794l-2.48-4.291a.623.623,0,0,0-.757-.273l-3.088,1.24a9.061,9.061,0,0,0-2.1-1.215l-.471-3.287A.6.6,0,0,0,16.818,2H11.857a.6.6,0,0,0-.608.521l-.471,3.287a9.528,9.528,0,0,0-2.1,1.215L5.594,5.783a.6.6,0,0,0-.757.273l-2.48,4.291a.611.611,0,0,0,.149.794l2.617,2.046A9.836,9.836,0,0,0,5.036,14.4a9.836,9.836,0,0,0,.087,1.215L2.505,17.664a.626.626,0,0,0-.149.794l2.48,4.291a.623.623,0,0,0,.757.273l3.088-1.24A9.061,9.061,0,0,0,10.778,23l.471,3.287a.6.6,0,0,0,.608.521h4.961a.6.6,0,0,0,.608-.521L17.9,23a9.528,9.528,0,0,0,2.1-1.215l3.088,1.24a.6.6,0,0,0,.757-.273l2.48-4.291a.626.626,0,0,0-.149-.794Zm-9.215,3.125A4.341,4.341,0,1,1,18.678,14.4,4.346,4.346,0,0,1,14.337,18.743Z" transform="translate(-1.471 -1.25)" fill="none" stroke="#afbccc" stroke-width="1.5"/>
</svg>
